<svg xmlns="http://www.w3.org/2000/svg" viewBox="0 0 40 40" width="40" height="40">
    <defs>
        <linearGradient id="gradient" x1="3.3190399999999944" x2="36.68096" y1="20" y2="0"
                        gradientTransform="matrix(0.029974294,0,0,0.032229785,-0.099485881,-0.14459571)">
            <stop stop-color="#ff8000"/>
            <stop offset="0.996222" stop-color="#ffd100"/>
        </linearGradient>
    </defs>
    <g>
        <g>
            <g>
                <path d="M9.83168,35.5136C9.83168,35.5136 9.83168,31.45856 9.83168,31.45856 Q6.82112,31.2128 5.08544,29.53856 Q3.34976,27.86432 3.31904,25.19168 Q7.15904,25.19168 7.15904,25.19168 Q7.15904,26.32832 7.8656,27.08096 Q8.57216,27.8336 9.83168,28.07936 Q9.83168,21.56672 9.83168,21.56672 C9.83168,21.56672 9.27872,21.41312 9.27872,21.41312 Q6.6368,20.73728 5.20832,18.98624 Q3.77984,17.2352 3.77984,14.74688 Q3.77984,12.13568 5.408,10.46144 Q7.03616,8.7872 9.83168,8.54144 Q9.83168,4.4864 9.83168,4.4864 C9.83168,4.4864 11.73632,4.4864 11.73632,4.4864 C11.73632,4.4864 11.73632,8.51072 11.73632,8.51072 Q14.56256,8.75648 16.22144,10.4 Q17.88032,12.04352 17.91104,14.65472 Q14.07104,14.65472 14.07104,14.65472 Q14.07104,13.5488 13.472,12.84224 Q12.87296,12.13568 11.73632,11.92064 Q11.73632,18.12608 11.73632,18.12608 C11.73632,18.12608 12.75008,18.40256 12.75008,18.40256 Q15.42272,19.0784 16.83584,20.81408 Q18.24896,22.54976 18.24896,25.09952 Q18.24896,27.77216 16.48256,29.50784 Q14.71616,31.24352 11.73632,31.48928 Q11.73632,35.5136 11.73632,35.5136 C11.73632,35.5136 9.83168,35.5136 9.83168,35.5136 C9.83168,35.5136 9.83168,35.5136 9.83168,35.5136 ZM11.73632,28.11008Q12.99584,27.92576 13.7024,27.17312 Q14.40896,26.42048 14.40896,25.25312 Q14.40896,23.90144 13.45664,23.01056 Q12.50432,22.11968 10.84544,22.02752 Q11.73632,20.86016 11.73632,20.86016 C11.73632,20.86016 11.73632,28.11008 11.73632,28.11008 C11.73632,28.11008 11.73632,28.11008 11.73632,28.11008 ZM9.83168,19.29344C9.83168,19.29344 9.83168,11.92064 9.83168,11.92064 Q8.75648,12.13568 8.18816,12.79616 Q7.61984,13.45664 7.61984,14.53184 Q7.61984,15.91424 8.5568,16.82048 Q9.49376,17.72672 11.18336,17.78816 Q9.83168,19.29344 9.83168,19.29344 C9.83168,19.29344 9.83168,19.29344 9.83168,19.29344 ZM28.26368,35.5136C28.26368,35.5136 28.26368,31.45856 28.26368,31.45856 Q25.25312,31.2128 23.51744,29.53856 Q21.78176,27.86432 21.75104,25.19168 Q25.59104,25.19168 25.59104,25.19168 Q25.59104,26.32832 26.2976,27.08096 Q27.00416,27.8336 28.26368,28.07936 Q28.26368,21.56672 28.26368,21.56672 C28.26368,21.56672 27.71072,21.41312 27.71072,21.41312 Q25.0688,20.73728 23.64032,18.98624 Q22.21184,17.2352 22.21184,14.74688 Q22.21184,12.13568 23.84,10.46144 Q25.46816,8.7872 28.26368,8.54144 Q28.26368,4.4864 28.26368,4.4864 C28.26368,4.4864 30.16832,4.4864 30.16832,4.4864 C30.16832,4.4864 30.16832,8.51072 30.16832,8.51072 Q32.99456,8.75648 34.65344,10.4 Q36.31232,12.04352 36.34304,14.65472 Q32.50304,14.65472 32.50304,14.65472 Q32.50304,13.5488 31.904,12.84224 Q31.30496,12.13568 30.16832,11.92064 Q30.16832,18.12608 30.16832,18.12608 C30.16832,18.12608 31.18208,18.40256 31.18208,18.40256 Q33.85472,19.0784 35.26784,20.81408 Q36.68096,22.54976 36.68096,25.09952 Q36.68096,27.77216 34.91456,29.50784 Q33.14816,31.24352 30.16832,31.48928 Q30.16832,35.5136 30.16832,35.5136 C30.16832,35.5136 28.26368,35.5136 28.26368,35.5136 C28.26368,35.5136 28.26368,35.5136 28.26368,35.5136 ZM30.16832,28.11008Q31.42784,27.92576 32.1344,27.17312 Q32.84096,26.42048 32.84096,25.25312 Q32.84096,23.90144 31.88864,23.01056 Q30.93632,22.11968 29.27744,22.02752 Q30.16832,20.86016 30.16832,20.86016 C30.16832,20.86016 30.16832,28.11008 30.16832,28.11008 C30.16832,28.11008 30.16832,28.11008 30.16832,28.11008 ZM28.26368,19.29344C28.26368,19.29344 28.26368,11.92064 28.26368,11.92064 Q27.18848,12.13568 26.62016,12.79616 Q26.05184,13.45664 26.05184,14.53184 Q26.05184,15.91424 26.9888,16.82048 Q27.92576,17.72672 29.61536,17.78816 Q28.26368,19.29344 28.26368,19.29344 C28.26368,19.29344 28.26368,19.29344 28.26368,19.29344 Z"
                      fill="url(#gradient)"/>
            </g>
        </g>
    </g>
</svg>
